<svg xmlns="http://www.w3.org/2000/svg" xmlns:xlink="http://www.w3.org/1999/xlink" viewBox="0,0,256,256" width="96px" height="96px"><defs><linearGradient x1="13.317" y1="8.915" x2="13.317" y2="51.952" gradientUnits="userSpaceOnUse" id="color-1"><stop offset="0" stop-color="#1a6dff"></stop><stop offset="1" stop-color="#c822ff"></stop></linearGradient><linearGradient x1="32" y1="8.915" x2="32" y2="51.952" gradientUnits="userSpaceOnUse" id="color-2"><stop offset="0" stop-color="#1a6dff"></stop><stop offset="1" stop-color="#c822ff"></stop></linearGradient><linearGradient x1="18" y1="19.894" x2="18" y2="23.383" gradientUnits="userSpaceOnUse" id="color-3"><stop offset="0" stop-color="#6dc7ff"></stop><stop offset="1" stop-color="#e6abff"></stop></linearGradient><linearGradient x1="32" y1="19.894" x2="32" y2="23.383" gradientUnits="userSpaceOnUse" id="color-4"><stop offset="0" stop-color="#6dc7ff"></stop><stop offset="1" stop-color="#e6abff"></stop></linearGradient><linearGradient x1="36.5" y1="32.872" x2="36.5" y2="35.468" gradientUnits="userSpaceOnUse" id="color-5"><stop offset="0" stop-color="#6dc7ff"></stop><stop offset="1" stop-color="#e6abff"></stop></linearGradient><linearGradient x1="47.5" y1="32.872" x2="47.5" y2="35.468" gradientUnits="userSpaceOnUse" id="color-6"><stop offset="0" stop-color="#6dc7ff"></stop><stop offset="1" stop-color="#e6abff"></stop></linearGradient></defs><g transform="translate(-25.6,-25.6) scale(1.2,1.2)"><g fill="none" fill-rule="nonzero" stroke="none" stroke-width="1" stroke-linecap="butt" stroke-linejoin="miter" stroke-miterlimit="10" stroke-dasharray="" stroke-dashoffset="0" font-family="none" font-weight="none" font-size="none" text-anchor="none" style="mix-blend-mode: normal"><g transform="scale(4,4)"><path d="M12,26.75h-2c0,3.841 1.949,7.317 5.489,9.79l1.145,-1.639c-2.988,-2.088 -4.634,-4.983 -4.634,-8.151z" fill="url(#color-1)"></path><path d="M53.07,47.771c3.186,-2.608 4.93,-6.113 4.93,-9.938c0,-7.085 -6.196,-12.935 -14.148,-13.732c-1.456,-8.09 -9.373,-14.101 -18.797,-14.101c-10.507,0 -19.055,7.514 -19.055,16.75c0,4.956 2.336,9.417 6.597,12.633l-2.035,6.311c-0.129,0.401 0.008,0.841 0.342,1.099c0.178,0.137 0.394,0.207 0.61,0.207c0.187,0 0.374,-0.052 0.539,-0.158l6.701,-4.288c2.527,0.831 5.626,1.138 8.598,0.825c2.478,4.873 8.107,8.289 14.648,8.289c1.943,0 3.845,-0.285 5.659,-0.847l5.386,3.05c0.154,0.087 0.324,0.13 0.493,0.13c0.22,0 0.439,-0.072 0.619,-0.215c0.319,-0.252 0.454,-0.672 0.342,-1.063zM18.966,40.511c-0.293,-0.107 -0.619,-0.07 -0.882,0.097l-4.765,3.05l1.403,-4.351c0.135,-0.418 -0.02,-0.875 -0.38,-1.126c-4.089,-2.859 -6.342,-6.918 -6.342,-11.431c0,-8.133 7.65,-14.75 17.055,-14.75c8.28,0 15.257,5.09 16.751,12.009c-8.733,0.091 -15.806,6.253 -15.806,13.824c0,1.248 0.209,2.451 0.569,3.602c-2.683,0.204 -5.426,-0.129 -7.603,-0.924zM51.323,46.6c-0.333,0.25 -0.477,0.679 -0.361,1.078l0.936,3.244l-3.635,-2.059c-0.152,-0.086 -0.322,-0.13 -0.493,-0.13c-0.107,0 -0.215,0.018 -0.319,0.053c-1.736,0.584 -3.57,0.881 -5.45,0.881c-7.72,0 -14,-5.309 -14,-11.834c-0.001,-6.524 6.279,-11.833 13.999,-11.833c7.72,0 14,5.309 14,11.833c0,3.394 -1.661,6.508 -4.677,8.767z" fill="url(#color-2)"></path><circle cx="18" cy="22" r="2" fill="url(#color-3)"></circle><g fill="url(#color-4)"><circle cx="32" cy="22" r="2"></circle></g><g fill="url(#color-5)"><circle cx="36.5" cy="34.5" r="1.5"></circle></g><g fill="url(#color-6)"><circle cx="47.5" cy="34.5" r="1.5"></circle></g></g></g></g></svg>